<svg xmlns="http://www.w3.org/2000/svg" viewBox="0 0 220 70" fill="white">
  <!-- J letter -->
  <!-- Top horizontal bar -->
  <rect x="0" y="0" width="40" height="12"/>
  <!-- Vertical stroke -->
  <rect x="14" y="0" width="13" height="48"/>
  <!-- Bottom curve of J -->
  <path d="M0 42 L0 52 Q0 66 14 66 L30 66 L30 54 L18 54 Q14 54 14 48 L14 42 Z"/>

  <!-- O letter -->
  <!-- Outer shape -->
  <path d="M50 12 Q50 0 64 0 L108 0 Q122 0 122 12 L122 44 Q122 56 108 56 L64 56 Q50 56 50 44 Z"/>
  <!-- Inner cutout -->
  <path d="M63 12 Q63 11 65 11 L107 11 Q109 11 109 12 L109 44 Q109 45 107 45 L65 45 Q63 45 63 44 Z" fill="#0a0a0f"/>
  <!-- Underline bar -->
  <rect x="50" y="60" width="72" height="10" rx="1"/>

  <!-- T letter -->
  <rect x="136" y="0" width="55" height="12"/>
  <rect x="155" y="0" width="14" height="66"/>
</svg>
